<svg width="626" height="137" viewBox="0 0 626 137" fill="none" xmlns="http://www.w3.org/2000/svg">
<path d="M0.372 134L26.412 3.79999H85.188C98.952 3.79999 110.794 6.03199 120.714 10.496C130.634 14.96 138.26 21.346 143.592 29.654C148.924 37.838 151.59 47.634 151.59 59.042C151.59 70.574 149.544 80.928 145.452 90.104C141.484 99.28 135.842 107.154 128.526 113.726C121.334 120.298 112.778 125.32 102.858 128.792C92.938 132.264 82.026 134 70.122 134H0.372ZM51.15 99.776H71.61C79.422 99.776 85.932 98.102 91.14 94.754C96.472 91.282 100.502 86.694 103.23 80.99C105.958 75.162 107.322 68.714 107.322 61.646C107.322 56.562 106.268 52.284 104.16 48.812C102.176 45.34 99.138 42.674 95.046 40.814C91.078 38.954 86.118 38.024 80.166 38.024H63.426L51.15 99.776ZM210.584 52.16H268.616L262.292 83.78H204.26L210.584 52.16ZM203.702 100.892H268.988L262.292 134H154.04L180.08 3.79999H285.914L279.218 36.908H216.536L203.702 100.892ZM310.296 134L294.672 3.79999H338.01L350.472 113.726H327.78L385.068 3.79999H425.43L436.404 113.726H415.014L472.116 3.79999H515.268L447.564 134H400.506L390.648 43.976H404.04L357.354 134H310.296ZM550.684 136.976C542.996 136.976 535.618 136.418 528.55 135.302C521.482 134.186 515.034 132.636 509.206 130.652C503.502 128.544 498.542 126.25 494.326 123.77L511.252 91.406C516.088 94.134 520.924 96.428 525.76 98.288C530.72 100.024 535.618 101.326 540.454 102.194C545.414 103.062 550.312 103.496 555.148 103.496C558.992 103.496 562.154 103.186 564.634 102.566C567.238 101.946 569.16 101.078 570.4 99.962C571.764 98.722 572.446 97.358 572.446 95.87C572.446 93.886 571.33 92.274 569.098 91.034C566.866 89.794 563.89 88.678 560.17 87.686C556.574 86.694 552.544 85.702 548.08 84.71C543.74 83.594 539.338 82.23 534.874 80.618C530.41 78.882 526.318 76.712 522.598 74.108C519.002 71.504 516.088 68.218 513.856 64.25C511.624 60.282 510.508 55.446 510.508 49.742C510.508 39.822 513.112 31.204 518.32 23.888C523.652 16.572 531.216 10.93 541.012 6.96199C550.932 2.87 562.712 0.823996 576.352 0.823996C586.024 0.823996 595.014 1.81599 603.322 3.79999C611.754 5.65999 619.008 8.38799 625.084 11.984L609.274 43.976C604.066 40.752 598.362 38.334 592.162 36.722C586.086 35.11 579.886 34.304 573.562 34.304C569.346 34.304 565.812 34.738 562.96 35.606C560.108 36.35 557.938 37.404 556.45 38.768C555.086 40.132 554.404 41.558 554.404 43.046C554.404 45.03 555.52 46.704 557.752 48.068C559.984 49.308 562.96 50.424 566.68 51.416C570.4 52.284 574.43 53.276 578.77 54.392C583.234 55.384 587.636 56.686 591.976 58.298C596.44 59.786 600.532 61.832 604.252 64.436C607.972 66.916 610.948 70.14 613.18 74.108C615.412 77.952 616.528 82.726 616.528 88.43C616.528 98.102 613.862 106.596 608.53 113.912C603.198 121.104 595.572 126.746 585.652 130.838C575.856 134.93 564.2 136.976 550.684 136.976Z" fill="#883AC5"/>
</svg>
